HIERARCHY
ROOT Pelvis
{
	OFFSET 0.000000 0.000000 0.000000
	CHANNELS 6 Xposition Yposition Zposition Xrotation Yrotation Zrotation
	JOINT LeftUpLeg_virtual
	{
		OFFSET 0.000000 0.000000 0.000000
		CHANNELS 3 Xrotation Yrotation Zrotation
		JOINT LeftUpLeg
		{
			OFFSET 18.735201 -5.666702 -4.541200
			CHANNELS 3 Xrotation Yrotation Zrotation
			JOINT LeftLeg
			{
				OFFSET -0.021200 -31.938179 0.493100
				CHANNELS 3 Xrotation Yrotation Zrotation
				JOINT LeftFoot
				{
					OFFSET 0.021200 -31.938179 -4.336299
					CHANNELS 3 Xrotation Yrotation Zrotation
					JOINT LeftToeBase
					{
						OFFSET 0.943001 -26.722000 15.023500
						CHANNELS 3 Xrotation Yrotation Zrotation
						End Site
						{
							OFFSET 0 0 0
						}
					}
				}
			}
		}
	}
	JOINT RightUpLeg_virtual
	{
		OFFSET 0.000000 0.000000 0.000000
		CHANNELS 3 Xrotation Yrotation Zrotation
		JOINT RightUpLeg
		{
			OFFSET -18.735201 -5.666702 -4.541200
			CHANNELS 3 Xrotation Yrotation Zrotation
			JOINT RightLeg
			{
				OFFSET 0.018946 -31.938133 0.493100
				CHANNELS 3 Xrotation Yrotation Zrotation
				JOINT RightFoot
				{
					OFFSET -0.018946 -31.938126 -4.336299
					CHANNELS 3 Xrotation Yrotation Zrotation
					JOINT RightToeBase
					{
						OFFSET -0.943001 -26.722004 15.023500
						CHANNELS 3 Xrotation Yrotation Zrotation
						End Site
						{
							OFFSET 0 0 0
						}
					}
				}
			}
		}
	}
	JOINT Hips_virtual
	{
		OFFSET 0.000000 0.000000 0.000000
		CHANNELS 3 Xrotation Yrotation Zrotation
		JOINT Hips
		{
			OFFSET -0.000000 -0.000000 -0.000000
			CHANNELS 3 Xrotation Yrotation Zrotation
			JOINT Spine
			{
				OFFSET 0.000000 10.199997 -0.299500
				CHANNELS 3 Xrotation Yrotation Zrotation
				JOINT Spine1
				{
					OFFSET 0.000000 11.900002 -1.516600
					CHANNELS 3 Xrotation Yrotation Zrotation
					JOINT Spine2
					{
						OFFSET 0.000000 13.600006 -2.842500
						CHANNELS 3 Xrotation Yrotation Zrotation
						JOINT Neck_virtual
						{
							OFFSET 0.000000 0.000000 0.000000
							CHANNELS 3 Xrotation Yrotation Zrotation
							JOINT Neck
							{
								OFFSET 0.000000 9.624100 -2.890100
								CHANNELS 3 Xrotation Yrotation Zrotation
								JOINT Head
								{
									OFFSET 0.000000 14.068802 -1.351900
									CHANNELS 3 Xrotation Yrotation Zrotation
									End Site
									{
										OFFSET 0 0 0
									}
								}
							}
						}
						JOINT LeftShoulder_virtual
						{
							OFFSET 0.000000 0.000000 0.000000
							CHANNELS 3 Xrotation Yrotation Zrotation
							JOINT LeftShoulder
							{
								OFFSET 15.263000 10.923401 -0.547700
								CHANNELS 3 Xrotation Yrotation Zrotation
								JOINT LeftArm
								{
									OFFSET 25.438599 -2.830597 -13.032500
									CHANNELS 3 Xrotation Yrotation Zrotation
									JOINT LeftForeArm
									{
										OFFSET 29.960503 0.000000 0.000000
										CHANNELS 3 Xrotation Yrotation Zrotation
										JOINT LeftHand
										{
											OFFSET 27.849251 0.000000 0.000000
											CHANNELS 3 Xrotation Yrotation Zrotation
											End Site
											{
												OFFSET 0 0 0
											}
										}
									}
								}
							}
						}
						JOINT RightShoulder_virtual
						{
							OFFSET 0.000000 0.000000 0.000000
							CHANNELS 3 Xrotation Yrotation Zrotation
							JOINT RightShoulder
							{
								OFFSET -15.263000 10.923401 -0.547700
								CHANNELS 3 Xrotation Yrotation Zrotation
								JOINT RightArm
								{
									OFFSET -25.438599 -2.830597 -13.032500
									CHANNELS 3 Xrotation Yrotation Zrotation
									JOINT RightForeArm
									{
										OFFSET -29.960503 0.000000 0.000000
										CHANNELS 3 Xrotation Yrotation Zrotation
										JOINT RightHand
										{
											OFFSET -27.849251 0.000000 0.000000
											CHANNELS 3 Xrotation Yrotation Zrotation
											End Site
											{
												OFFSET 0 0 0
											}
										}
									}
								}
							}
						}
					}
				}
			}
		}
	}
}
MOTION
Frames: 12
Frame Time: 0.03333333
-2.079878 79.817184 1.777349 0.000000 0.000000 0.000000 -1.230677 -39.534183 2.661465 -45.409495 -1.837117 18.046973 51.364071 -9.354460 -1.052805 -4.230959 -8.619378 -13.832135 0.000000 0.000000 0.000000 5.680696 -43.276400 -2.954447 -25.863174 -15.768322 -23.936862 48.803122 0.141989 -0.905780 -10.478135 -2.994011 10.632232 0.000000 0.000000 0.000000 -3.010904 -22.032455 0.316683 -3.705226 -16.957347 -1.284940 8.643336 3.907123 -1.801004 3.076826 2.321621 -0.858628 0.000000 0.000000 0.000000 4.246074 2.499995 -0.158463 0.223787 2.303422 -0.056974 0.000000 0.000000 0.000000 2.445999 1.793350 -0.575161 1.007002 3.032853 -6.921400 -48.242763 -17.706285 -59.967121 -50.087003 -80.231309 -46.607736 0.000000 0.000000 0.000000 2.977766 1.495517 -1.681882 2.196135 12.219618 -1.813768 -34.099853 34.832961 66.219176 -170.084496 65.930156 171.866711 0.000000 0.000000 0.000000 
-2.038794 79.753456 1.723348 0.000000 0.000000 0.000000 -1.278962 -39.521363 2.677256 -45.482428 -1.855250 18.083150 51.605993 -9.402202 -1.043685 -4.065638 -8.675098 -13.886466 0.000000 0.000000 0.000000 5.624579 -43.354370 -3.006959 -25.902842 -15.769691 -23.970105 48.865677 0.190485 -0.904549 -10.488470 -2.953703 10.661086 0.000000 0.000000 0.000000 -3.056867 -22.234516 0.339195 -3.645962 -16.724413 -1.295786 8.702012 3.920791 -1.792336 3.097683 2.343733 -0.824208 0.000000 0.000000 0.000000 4.266522 2.486034 -0.166506 0.234284 2.321798 -0.066276 0.000000 0.000000 0.000000 2.449507 1.765217 -0.605313 1.013852 3.058748 -7.022282 -48.431277 -17.891303 -59.870023 -50.852879 -80.397617 -47.378929 0.000000 0.000000 0.000000 2.964299 1.493439 -1.673542 2.213879 12.161026 -1.800811 -34.105303 34.721574 66.234913 -169.987153 65.715866 171.779422 0.000000 0.000000 0.000000 
-1.961465 79.641922 1.622779 0.000000 0.000000 0.000000 -1.379522 -39.520649 2.702190 -45.630441 -1.896515 18.147331 52.079291 -9.493012 -1.022548 -3.738625 -8.784813 -13.986077 0.000000 0.000000 0.000000 5.509966 -43.487487 -3.106650 -25.992025 -15.765598 -24.031490 48.998247 0.290840 -0.907012 -10.495369 -2.866474 10.716136 0.000000 0.000000 0.000000 -3.152156 -22.638546 0.378373 -3.522998 -16.273547 -1.325486 8.805753 3.953278 -1.767388 3.136721 2.383471 -0.757802 0.000000 0.000000 0.000000 4.302037 2.462721 -0.180636 0.255265 2.355411 -0.083493 0.000000 0.000000 0.000000 2.459094 1.708798 -0.662433 1.027658 3.094085 -7.211861 -48.746722 -18.222354 -59.673963 -52.343534 -80.702018 -48.885153 0.000000 0.000000 0.000000 2.941883 1.490504 -1.658047 2.245732 12.056406 -1.786069 -34.118420 34.522150 66.263552 -169.818966 65.335049 171.637190 0.000000 0.000000 0.000000 
-1.855176 79.507690 1.489462 0.000000 0.000000 0.000000 -1.539694 -39.572012 2.724888 -45.857340 -1.968955 18.225784 52.766022 -9.620053 -0.985826 -3.256318 -8.945943 -14.118374 0.000000 0.000000 0.000000 5.334566 -43.637433 -3.244111 -26.144325 -15.745171 -24.112323 49.210465 0.449298 -0.921651 -10.477708 -2.720806 10.793184 0.000000 0.000000 0.000000 -3.299454 -23.237282 0.425369 -3.331331 -15.632041 -1.386242 8.933376 4.011320 -1.715772 3.187966 2.433253 -0.664117 0.000000 0.000000 0.000000 4.345085 2.437005 -0.197701 0.286880 2.398900 -0.106328 0.000000 0.000000 0.000000 2.478872 1.625005 -0.740104 1.049184 3.114490 -7.469093 -49.094894 -18.631726 -59.381678 -54.483306 -81.095717 -51.057795 0.000000 0.000000 0.000000 2.916868 1.488787 -1.637944 2.285019 11.926421 -1.787585 -34.143733 34.270775 66.299144 -169.620262 64.864695 171.486406 0.000000 0.000000 0.000000 
-1.726542 79.375076 1.342396 0.000000 0.000000 0.000000 -1.767769 -39.714777 2.732835 -46.166519 -2.080322 18.303662 53.644876 -9.777693 -0.932353 -2.627298 -9.156056 -14.274759 0.000000 0.000000 0.000000 5.099772 -43.762945 -3.408172 -26.368078 -15.698030 -24.203074 49.506031 0.673212 -0.958158 -10.416844 -2.503893 10.887769 0.000000 0.000000 0.000000 -3.495612 -24.006421 0.472378 -3.070806 -14.836767 -1.488188 9.065179 4.097954 -1.630859 3.242247 2.484513 -0.549675 0.000000 0.000000 0.000000 4.390340 2.415012 -0.214312 0.329553 2.446201 -0.132248 0.000000 0.000000 0.000000 2.513347 1.517351 -0.828891 1.080440 3.100070 -7.768946 -49.388709 -19.039666 -59.008866 -57.156068 -81.519202 -53.785909 0.000000 0.000000 0.000000 2.894089 1.490619 -1.617007 2.323546 11.793729 -1.823715 -34.187187 34.000733 66.332782 -169.429495 64.385120 171.364692 0.000000 0.000000 0.000000 
-1.579713 79.259163 1.204961 0.000000 0.000000 0.000000 -2.068520 -39.973573 2.716561 -46.557291 -2.234709 18.369584 54.692569 -9.963699 -0.865385 -1.863650 -9.413244 -14.455496 0.000000 0.000000 0.000000 4.813558 -43.833446 -3.588577 -26.659026 -15.618988 -24.296912 49.875373 0.967690 -1.024703 -10.305436 -2.206676 10.995731 0.000000 0.000000 0.000000 -3.729631 -24.898165 0.515233 -2.750243 -13.934367 -1.633566 9.190367 4.208597 -1.514086 3.289231 2.529625 -0.421967 0.000000 0.000000 0.000000 4.437330 2.399757 -0.227484 0.383808 2.492113 -0.158996 0.000000 0.000000 0.000000 2.566783 1.392681 -0.917171 1.124529 3.044938 -8.086272 -49.577942 -19.371917 -58.587669 -60.169377 -81.911747 -56.877659 0.000000 0.000000 0.000000 2.875108 1.497844 -1.599415 2.354173 11.677956 -1.907012 -34.253378 33.729496 66.353539 -169.271786 63.960460 171.286569 0.000000 0.000000 0.000000 
-1.416861 79.162285 1.104473 0.000000 0.000000 0.000000 -2.438206 -40.351788 2.673247 -47.021003 -2.430759 18.418800 55.881292 -10.179102 -0.792092 -0.984403 -9.715603 -14.668784 0.000000 0.000000 0.000000 4.491567 -43.838729 -3.778149 -26.997783 -15.510803 -24.392520 50.293012 1.331934 -1.125443 -10.151625 -1.828595 11.113273 0.000000 0.000000 0.000000 -3.985896 -25.845081 0.552888 -2.387347 -12.980699 -1.814554 9.309412 4.330868 -1.374704 3.320964 2.562936 -0.288318 0.000000 0.000000 0.000000 4.490021 2.390871 -0.234951 0.449820 2.533441 -0.184850 0.000000 0.000000 0.000000 2.642893 1.260520 -0.992627 1.184389 2.959374 -8.397291 -49.657056 -19.574327 -58.161117 -63.204624 -82.220369 -60.009434 0.000000 0.000000 0.000000 2.859076 1.511182 -1.588535 2.373603 11.592871 -2.041130 -34.341682 33.453321 66.349250 -169.154839 63.632843 171.241954 0.000000 0.000000 0.000000 
-1.240413 79.076004 1.070810 0.000000 0.000000 0.000000 -2.861646 -40.835317 2.608385 -47.539199 -2.662438 18.453844 57.174141 -10.425805 -0.720562 -0.019271 -10.060039 -14.924341 0.000000 0.000000 0.000000 4.156318 -43.791372 -3.973089 -27.352976 -15.384101 -24.494817 50.721644 1.757223 -1.259024 -9.976892 -1.379923 11.237095 0.000000 0.000000 0.000000 -4.250696 -26.775037 0.584225 -2.004603 -12.036008 -2.016533 9.430431 4.448284 -1.225649 3.334856 2.580741 -0.154803 0.000000 0.000000 0.000000 4.553785 2.385955 -0.235439 0.526835 2.569337 -0.208689 0.000000 0.000000 0.000000 2.743971 1.131343 -1.044100 1.260669 2.864512 -8.678817 -49.655052 -19.621969 -57.770163 -65.820798 -82.410276 -62.730493 0.000000 0.000000 0.000000 2.845067 1.529808 -1.586081 2.383938 11.545021 -2.221372 -34.443387 33.151027 66.306466 -169.070896 63.426632 171.204238 0.000000 0.000000 0.000000 
-1.055496 78.986862 1.132974 0.000000 0.000000 0.000000 -3.312528 -41.403814 2.535180 -48.084682 -2.921868 18.482774 58.522406 -10.702864 -0.655818 0.990319 -10.440535 -15.224493 0.000000 0.000000 0.000000 3.835185 -43.721817 -4.170826 -27.688106 -15.254936 -24.612681 51.121965 2.227782 -1.418643 -9.808777 -0.880459 11.364858 0.000000 0.000000 0.000000 -4.517418 -27.631590 0.604663 -1.623095 -11.154981 -2.224844 9.562068 4.545368 -1.078137 3.333916 2.580543 -0.025658 0.000000 0.000000 0.000000 4.631848 2.382317 -0.229103 0.612746 2.600805 -0.230011 0.000000 0.000000 0.000000 2.869143 1.014404 -1.063422 1.349651 2.783784 -8.907654 -49.618141 -19.521061 -57.440798 -67.575802 -82.470163 -64.585224 0.000000 0.000000 0.000000 2.833977 1.551297 -1.592112 2.391678 11.533092 -2.437562 -34.541971 32.793849 66.209566 -169.003018 63.354929 171.142083 0.000000 0.000000 0.000000 
-0.870736 78.883087 1.313674 0.000000 0.000000 0.000000 -3.756703 -42.041706 2.471762 -48.624813 -3.202175 18.515917 59.867776 -11.002385 -0.597298 1.994809 -10.845625 -15.557284 0.000000 0.000000 0.000000 3.557281 -43.669217 -4.366569 -27.969450 -15.141215 -24.754501 51.464027 2.723990 -1.593849 -9.671594 -0.355093 11.495380 0.000000 0.000000 0.000000 -4.785836 -28.388177 0.605971 -1.258558 -10.378269 -2.430335 9.707101 4.611212 -0.938215 3.324217 2.560198 0.096547 0.000000 0.000000 0.000000 4.723199 2.377842 -0.217760 0.703959 2.629665 -0.248934 0.000000 0.000000 0.000000 3.012674 0.915925 -1.046757 1.442558 2.735723 -9.062107 -49.594519 -19.303361 -57.178529 -68.210900 -82.410488 -65.299586 0.000000 0.000000 0.000000 2.828675 1.571863 -1.605625 2.404565 11.548217 -2.677380 -34.616949 32.358038 66.040723 -168.934006 63.421551 171.030819 0.000000 0.000000 0.000000 
-0.696550 78.760040 1.623485 0.000000 0.000000 0.000000 -4.157177 -42.742757 2.436879 -49.125579 -3.498435 18.562306 61.148730 -11.306240 -0.539528 2.943800 -11.255387 -15.894701 0.000000 0.000000 0.000000 3.349104 -43.671437 -4.551068 -28.172725 -15.059322 -24.923936 51.735186 3.226186 -1.773327 -9.578976 0.171644 11.628239 0.000000 0.000000 0.000000 -5.056418 -29.049635 0.580009 -0.920985 -9.730397 -2.630006 9.859604 4.639680 -0.806679 3.311214 2.517640 0.210127 0.000000 0.000000 0.000000 4.822695 2.370809 -0.204635 0.795735 2.657488 -0.266099 0.000000 0.000000 0.000000 3.163786 0.838061 -0.995117 1.527161 2.730871 -9.125967 -49.623834 -19.014690 -56.972138 -67.758045 -82.253543 -64.891483 0.000000 0.000000 0.000000 2.832534 1.586850 -1.625184 2.427766 11.575519 -2.928723 -34.649785 31.836355 65.782604 -168.855226 63.618062 170.861062 0.000000 0.000000 0.000000 
-0.541358 78.622780 2.057226 0.000000 0.000000 0.000000 -4.479608 -43.505289 2.445219 -49.555789 -3.805976 18.626761 62.307328 -11.584905 -0.476033 3.793357 -11.638932 -16.197059 0.000000 0.000000 0.000000 3.229210 -43.756876 -4.711813 -28.287012 -15.021154 -25.118077 51.941014 3.717686 -1.947325 -9.531281 0.679899 11.763276 0.000000 0.000000 0.000000 -5.323650 -29.639947 0.524243 -0.618252 -9.224594 -2.823039 10.006886 4.627332 -0.681916 3.297224 2.451214 0.313377 0.000000 0.000000 0.000000 4.923030 2.359220 -0.193460 0.882874 2.684965 -0.282414 0.000000 0.000000 0.000000 3.308828 0.778821 -0.913809 1.591257 2.772369 -9.093031 -49.730433 -18.701475 -56.803087 -66.497711 -82.026590 -63.631914 0.000000 0.000000 0.000000 2.847663 1.591256 -1.649189 2.461649 11.596680 -3.181044 -34.627966 31.243768 65.422345 -168.772048 63.920435 170.642427 0.000000 0.000000 0.000000 
